<svg xmlns="http://www.w3.org/2000/svg" viewBox="0 0 340 380" fill="none">
  <defs>
    <style>.k{stroke:#243d2a;stroke-width:3;stroke-linecap:round;stroke-linejoin:round}</style>
    <linearGradient id="m-brand" x1="0" y1="0" x2="1" y2="1">
      <stop offset="0%" stop-color="#006838"/>
      <stop offset="50%" stop-color="#8DC21F"/>
      <stop offset="100%" stop-color="#E8A0BF"/>
    </linearGradient>
    <linearGradient id="m-roof" x1="0" y1="0" x2="1" y2="0">
      <stop offset="0%" stop-color="#006838"/>
      <stop offset="100%" stop-color="#8DC21F"/>
    </linearGradient>
    <linearGradient id="m-balcony" x1="0" y1="0" x2="1" y2="0">
      <stop offset="0%" stop-color="#8DC21F"/>
      <stop offset="100%" stop-color="#E8A0BF"/>
    </linearGradient>
    <linearGradient id="m-leaf" x1="0" y1="0" x2="0" y2="1">
      <stop offset="0%" stop-color="#8DC21F"/>
      <stop offset="100%" stop-color="#006838"/>
    </linearGradient>
  </defs>
  <rect x="8" y="12" width="36" height="36" rx="9" fill="url(#m-brand)" opacity="0.12"/>
  <rect x="290" y="18" width="30" height="30" rx="8" fill="url(#m-brand)" opacity="0.1"/>

  <rect x="0" y="340" width="340" height="40" fill="#8DC21F" opacity="0.1"/>
  <line x1="0" y1="340" x2="340" y2="340" class="k"/>

  <rect x="35" y="65" width="270" height="275" rx="4" fill="#fff" class="k"/>
  <rect x="28" y="52" width="284" height="20" rx="4" fill="url(#m-roof)" class="k"/>
  <path d="M28 72 Q170 82 312 72" fill="url(#m-roof)" class="k"/>

  <rect x="45" y="135" width="250" height="6" rx="2" fill="url(#m-balcony)" stroke="none" opacity="0.4"/>
  <rect x="45" y="215" width="250" height="6" rx="2" fill="url(#m-balcony)" stroke="none" opacity="0.4"/>
  <rect x="45" y="295" width="250" height="6" rx="2" fill="url(#m-balcony)" stroke="none" opacity="0.4"/>

  <rect x="55" y="85" width="36" height="36" rx="4" fill="#fff" class="k"/>
  <rect x="110" y="85" width="36" height="36" rx="4" fill="#fff" class="k"/>
  <rect x="195" y="85" width="36" height="36" rx="4" fill="#fff" class="k"/>
  <rect x="250" y="85" width="36" height="36" rx="4" fill="#fff" class="k"/>
  <rect x="55" y="158" width="36" height="36" rx="4" fill="#fff" class="k"/>
  <rect x="110" y="158" width="36" height="36" rx="4" fill="#fff" class="k"/>
  <rect x="195" y="158" width="36" height="36" rx="4" fill="#fff" class="k"/>
  <rect x="250" y="158" width="36" height="36" rx="4" fill="#fff" class="k"/>
  <rect x="55" y="238" width="36" height="36" rx="4" fill="#fff" class="k"/>
  <rect x="110" y="238" width="36" height="36" rx="4" fill="#fff" class="k"/>
  <rect x="195" y="238" width="36" height="36" rx="4" fill="#fff" class="k"/>
  <rect x="250" y="238" width="36" height="36" rx="4" fill="#fff" class="k"/>

  <rect x="130" y="305" width="80" height="35" rx="4" fill="#E8A0BF" opacity="0.12" class="k"/>
  <rect x="120" y="298" width="100" height="10" rx="4" fill="url(#m-brand)" class="k"/>

  <rect x="48" y="322" width="20" height="18" rx="5" fill="#8DC21F" opacity="0.25" class="k"/>
  <circle cx="58" cy="315" r="9" fill="url(#m-leaf)" class="k"/>
  <rect x="272" y="322" width="20" height="18" rx="5" fill="#8DC21F" opacity="0.25" class="k"/>
  <circle cx="282" cy="315" r="9" fill="url(#m-leaf)" class="k"/>
</svg>
