<svg xmlns="http://www.w3.org/2000/svg" viewBox="0 0 320 300" fill="none">
  <defs>
    <style>.k{stroke:#243d2a;stroke-width:3;stroke-linecap:round;stroke-linejoin:round}</style>
    <linearGradient id="a-brand" x1="0" y1="0" x2="1" y2="1">
      <stop offset="0%" stop-color="#006838"/>
      <stop offset="50%" stop-color="#8DC21F"/>
      <stop offset="100%" stop-color="#E8A0BF"/>
    </linearGradient>
    <linearGradient id="a-roof" x1="0" y1="0" x2="1" y2="0">
      <stop offset="0%" stop-color="#006838"/>
      <stop offset="100%" stop-color="#8DC21F"/>
    </linearGradient>
    <linearGradient id="a-leaf" x1="0" y1="0" x2="0" y2="1">
      <stop offset="0%" stop-color="#8DC21F"/>
      <stop offset="100%" stop-color="#006838"/>
    </linearGradient>
  </defs>
  <rect x="8" y="10" width="32" height="32" rx="8" fill="url(#a-brand)" opacity="0.12"/>
  <rect x="270" y="15" width="28" height="28" rx="7" fill="url(#a-brand)" opacity="0.1"/>

  <rect x="0" y="262" width="320" height="38" fill="#8DC21F" opacity="0.1"/>
  <line x1="0" y1="262" x2="320" y2="262" class="k"/>

  <rect x="30" y="82" width="260" height="180" rx="4" fill="#fff" class="k"/>
  <rect x="25" y="70" width="270" height="18" rx="4" fill="url(#a-roof)" class="k"/>
  <path d="M25 88 Q160 96 295 88" fill="url(#a-roof)" class="k"/>

  <rect x="30" y="152" width="260" height="3" rx="1" fill="url(#a-brand)" stroke="none" opacity="0.15"/>

  <rect x="272" y="100" width="18" height="162" rx="3" fill="url(#a-brand)" class="k" opacity="0.15"/>
  <rect x="276" y="116" width="14" height="3" rx="1" fill="#fff" stroke="none"/>
  <rect x="276" y="132" width="14" height="3" rx="1" fill="#fff" stroke="none"/>
  <rect x="276" y="148" width="14" height="3" rx="1" fill="#fff" stroke="none"/>
  <rect x="276" y="170" width="14" height="3" rx="1" fill="#fff" stroke="none"/>
  <rect x="276" y="186" width="14" height="3" rx="1" fill="#fff" stroke="none"/>
  <rect x="276" y="202" width="14" height="3" rx="1" fill="#fff" stroke="none"/>
  <rect x="276" y="218" width="14" height="3" rx="1" fill="#fff" stroke="none"/>

  <rect x="48" y="98" width="26" height="38" rx="3" fill="#E8A0BF" opacity="0.2" class="k"/>
  <line x1="61" y1="98" x2="61" y2="136" stroke="#243d2a" stroke-width="2"/>
  <rect x="90" y="100" width="28" height="28" rx="4" fill="#fff" class="k"/>
  <rect x="140" y="98" width="26" height="38" rx="3" fill="#E8A0BF" opacity="0.2" class="k"/>
  <line x1="153" y1="98" x2="153" y2="136" stroke="#243d2a" stroke-width="2"/>
  <rect x="182" y="100" width="28" height="28" rx="4" fill="#fff" class="k"/>

  <rect x="48" y="170" width="26" height="38" rx="3" fill="#E8A0BF" opacity="0.2" class="k"/>
  <line x1="61" y1="170" x2="61" y2="208" stroke="#243d2a" stroke-width="2"/>
  <rect x="90" y="172" width="28" height="28" rx="4" fill="#fff" class="k"/>
  <rect x="140" y="170" width="26" height="38" rx="3" fill="#E8A0BF" opacity="0.2" class="k"/>
  <line x1="153" y1="170" x2="153" y2="208" stroke="#243d2a" stroke-width="2"/>
  <rect x="182" y="172" width="28" height="28" rx="4" fill="#fff" class="k"/>
  <rect x="232" y="170" width="26" height="38" rx="3" fill="#E8A0BF" opacity="0.2" class="k"/>
  <line x1="245" y1="170" x2="245" y2="208" stroke="#243d2a" stroke-width="2"/>

  <circle cx="18" cy="238" r="12" fill="#8DC21F" class="k"/>
  <circle cx="18" cy="228" r="9" fill="url(#a-leaf)" class="k"/>
  <rect x="14" y="246" width="8" height="16" rx="3" fill="#006838" class="k" opacity="0.4"/>
</svg>
