<svg xmlns="http://www.w3.org/2000/svg" viewBox="0 0 300 400" fill="none">
  <defs>
    <style>.k{stroke:#243d2a;stroke-width:3;stroke-linecap:round;stroke-linejoin:round}</style>
    <linearGradient id="ob-brand" x1="0" y1="0" x2="1" y2="1">
      <stop offset="0%" stop-color="#006838"/>
      <stop offset="50%" stop-color="#8DC21F"/>
      <stop offset="100%" stop-color="#E8A0BF"/>
    </linearGradient>
    <linearGradient id="ob-roof" x1="0" y1="0" x2="1" y2="0">
      <stop offset="0%" stop-color="#006838"/>
      <stop offset="100%" stop-color="#8DC21F"/>
    </linearGradient>
    <linearGradient id="ob-leaf" x1="0" y1="0" x2="0" y2="1">
      <stop offset="0%" stop-color="#8DC21F"/>
      <stop offset="100%" stop-color="#006838"/>
    </linearGradient>
  </defs>
  <rect x="8" y="20" width="42" height="42" rx="10" fill="url(#ob-brand)" opacity="0.12"/>
  <rect x="245" y="35" width="35" height="35" rx="9" fill="url(#ob-brand)" opacity="0.1"/>

  <rect x="0" y="358" width="300" height="42" fill="#8DC21F" opacity="0.1"/>
  <line x1="0" y1="358" x2="300" y2="358" class="k"/>

  <rect x="60" y="60" width="180" height="298" rx="4" fill="#fff" class="k"/>
  <rect x="55" y="50" width="190" height="16" rx="4" fill="url(#ob-roof)" class="k"/>
  <rect x="115" y="30" width="70" height="24" rx="4" fill="url(#ob-roof)" class="k" opacity="0.7"/>

  <rect x="60" y="126" width="180" height="3" rx="1" fill="url(#ob-brand)" stroke="none" opacity="0.2"/>
  <rect x="60" y="198" width="180" height="3" rx="1" fill="url(#ob-brand)" stroke="none" opacity="0.2"/>
  <rect x="60" y="270" width="180" height="3" rx="1" fill="url(#ob-brand)" stroke="none" opacity="0.2"/>

  <rect x="78" y="78" width="26" height="32" rx="4" fill="#fff" class="k"/>
  <rect x="118" y="78" width="26" height="32" rx="4" fill="#fff" class="k"/>
  <rect x="156" y="78" width="26" height="32" rx="4" fill="#fff" class="k"/>
  <rect x="196" y="78" width="26" height="32" rx="4" fill="#fff" class="k"/>
  <rect x="78" y="144" width="26" height="32" rx="4" fill="#fff" class="k"/>
  <rect x="118" y="144" width="26" height="32" rx="4" fill="#fff" class="k"/>
  <rect x="156" y="144" width="26" height="32" rx="4" fill="#fff" class="k"/>
  <rect x="196" y="144" width="26" height="32" rx="4" fill="#fff" class="k"/>
  <rect x="78" y="216" width="26" height="32" rx="4" fill="#fff" class="k"/>
  <rect x="118" y="216" width="26" height="32" rx="4" fill="#fff" class="k"/>
  <rect x="156" y="216" width="26" height="32" rx="4" fill="#fff" class="k"/>
  <rect x="196" y="216" width="26" height="32" rx="4" fill="#fff" class="k"/>
  <rect x="78" y="286" width="26" height="32" rx="4" fill="#fff" class="k"/>
  <rect x="196" y="286" width="26" height="32" rx="4" fill="#fff" class="k"/>

  <rect x="118" y="286" width="64" height="72" rx="4" fill="#E8A0BF" opacity="0.12" class="k"/>
  <line x1="150" y1="286" x2="150" y2="358" class="k" stroke-width="2"/>
  <rect x="108" y="278" width="84" height="12" rx="4" fill="url(#ob-brand)" class="k"/>

  <rect x="72" y="340" width="20" height="18" rx="5" fill="#8DC21F" opacity="0.25" class="k"/>
  <circle cx="82" cy="333" r="9" fill="url(#ob-leaf)" class="k"/>
  <rect x="208" y="340" width="20" height="18" rx="5" fill="#8DC21F" opacity="0.25" class="k"/>
  <circle cx="218" cy="333" r="9" fill="url(#ob-leaf)" class="k"/>
</svg>
