<svg xmlns="http://www.w3.org/2000/svg" viewBox="0 0 300 300" fill="none">
  <defs>
    <style>.k{stroke:#243d2a;stroke-width:3;stroke-linecap:round;stroke-linejoin:round}</style>
    <linearGradient id="s-brand" x1="0" y1="0" x2="1" y2="1">
      <stop offset="0%" stop-color="#006838"/>
      <stop offset="50%" stop-color="#8DC21F"/>
      <stop offset="100%" stop-color="#E8A0BF"/>
    </linearGradient>
    <linearGradient id="s-roof" x1="0" y1="0" x2="1" y2="0">
      <stop offset="0%" stop-color="#006838"/>
      <stop offset="100%" stop-color="#8DC21F"/>
    </linearGradient>
    <linearGradient id="s-awning" x1="0" y1="0" x2="1" y2="0">
      <stop offset="0%" stop-color="#8DC21F"/>
      <stop offset="100%" stop-color="#E8A0BF"/>
    </linearGradient>
    <linearGradient id="s-leaf" x1="0" y1="0" x2="0" y2="1">
      <stop offset="0%" stop-color="#8DC21F"/>
      <stop offset="100%" stop-color="#006838"/>
    </linearGradient>
  </defs>
  <rect x="240" y="10" width="34" height="34" rx="8" fill="url(#s-brand)" opacity="0.12"/>
  <rect x="10" y="15" width="28" height="28" rx="7" fill="url(#s-brand)" opacity="0.1"/>

  <rect x="0" y="262" width="300" height="38" fill="#8DC21F" opacity="0.1"/>
  <line x1="0" y1="262" x2="300" y2="262" class="k"/>

  <rect x="35" y="78" width="230" height="184" rx="4" fill="#fff" class="k"/>
  <rect x="28" y="66" width="244" height="18" rx="4" fill="url(#s-roof)" class="k"/>
  <path d="M28 84 Q150 92 272 84" fill="url(#s-roof)" class="k"/>

  <rect x="30" y="130" width="240" height="16" rx="4" fill="url(#s-awning)" class="k"/>
  <path d="M30 146 Q90 158 150 146 Q210 158 270 146" fill="url(#s-awning)" class="k"/>

  <rect x="95" y="86" width="110" height="32" rx="5" fill="#fff" class="k"/>
  <rect x="58" y="88" width="24" height="24" rx="4" fill="#fff" class="k"/>
  <rect x="218" y="88" width="24" height="24" rx="4" fill="#fff" class="k"/>

  <rect x="48" y="162" width="78" height="65" rx="4" fill="#8DC21F" opacity="0.06" class="k"/>
  <rect x="174" y="162" width="78" height="65" rx="4" fill="#8DC21F" opacity="0.06" class="k"/>

  <rect x="134" y="162" width="32" height="100" rx="3" fill="#E8A0BF" opacity="0.15" class="k"/>
  <line x1="150" y1="162" x2="150" y2="262" stroke="#243d2a" stroke-width="2"/>

  <rect x="48" y="240" width="18" height="22" rx="5" fill="#8DC21F" opacity="0.25" class="k"/>
  <circle cx="57" cy="233" r="8" fill="url(#s-leaf)" class="k"/>
  <rect x="234" y="240" width="18" height="22" rx="5" fill="#8DC21F" opacity="0.25" class="k"/>
  <circle cx="243" cy="233" r="8" fill="url(#s-leaf)" class="k"/>
</svg>
