<svg xmlns="http://www.w3.org/2000/svg" viewBox="0 0 280 320" fill="none">
  <defs>
    <style>.k{stroke:#243d2a;stroke-width:3;stroke-linecap:round;stroke-linejoin:round}</style>
    <linearGradient id="of-brand" x1="0" y1="0" x2="1" y2="1">
      <stop offset="0%" stop-color="#006838"/>
      <stop offset="50%" stop-color="#8DC21F"/>
      <stop offset="100%" stop-color="#E8A0BF"/>
    </linearGradient>
    <linearGradient id="of-roof" x1="0" y1="0" x2="1" y2="0">
      <stop offset="0%" stop-color="#006838"/>
      <stop offset="100%" stop-color="#8DC21F"/>
    </linearGradient>
    <linearGradient id="of-leaf" x1="0" y1="0" x2="0" y2="1">
      <stop offset="0%" stop-color="#8DC21F"/>
      <stop offset="100%" stop-color="#006838"/>
    </linearGradient>
  </defs>
  <rect x="8" y="10" width="30" height="30" rx="8" fill="url(#of-brand)" opacity="0.12"/>
  <rect x="238" y="14" width="26" height="26" rx="7" fill="url(#of-brand)" opacity="0.1"/>

  <rect x="0" y="282" width="280" height="38" fill="#8DC21F" opacity="0.1"/>
  <line x1="0" y1="282" x2="280" y2="282" class="k"/>

  <rect x="40" y="58" width="200" height="224" rx="4" fill="#fff" class="k"/>
  <rect x="35" y="48" width="210" height="16" rx="4" fill="url(#of-roof)" class="k"/>

  <rect x="40" y="122" width="200" height="3" rx="1" fill="url(#of-brand)" stroke="none" opacity="0.15"/>
  <rect x="40" y="190" width="200" height="3" rx="1" fill="url(#of-brand)" stroke="none" opacity="0.15"/>

  <rect x="90" y="60" width="100" height="22" rx="4" fill="#fff" class="k"/>

  <rect x="58" y="80" width="24" height="28" rx="4" fill="#fff" class="k"/>
  <rect x="96" y="80" width="24" height="28" rx="4" fill="#fff" class="k"/>
  <rect x="160" y="80" width="24" height="28" rx="4" fill="#fff" class="k"/>
  <rect x="198" y="80" width="24" height="28" rx="4" fill="#fff" class="k"/>
  <rect x="58" y="138" width="24" height="28" rx="4" fill="#fff" class="k"/>
  <rect x="96" y="138" width="24" height="28" rx="4" fill="#fff" class="k"/>
  <rect x="160" y="138" width="24" height="28" rx="4" fill="#fff" class="k"/>
  <rect x="198" y="138" width="24" height="28" rx="4" fill="#fff" class="k"/>
  <rect x="58" y="205" width="24" height="28" rx="4" fill="#fff" class="k"/>
  <rect x="198" y="205" width="24" height="28" rx="4" fill="#fff" class="k"/>

  <rect x="100" y="200" width="80" height="82" rx="4" fill="#E8A0BF" opacity="0.1" class="k"/>
  <line x1="140" y1="200" x2="140" y2="282" class="k" stroke-width="2"/>
  <rect x="90" y="193" width="100" height="10" rx="4" fill="url(#of-brand)" class="k"/>

  <rect x="50" y="264" width="18" height="18" rx="5" fill="#8DC21F" opacity="0.25" class="k"/>
  <circle cx="59" cy="257" r="8" fill="url(#of-leaf)" class="k"/>
  <rect x="212" y="264" width="18" height="18" rx="5" fill="#8DC21F" opacity="0.25" class="k"/>
  <circle cx="221" cy="257" r="8" fill="url(#of-leaf)" class="k"/>
</svg>
